<?xml version="1.0" encoding="UTF-8" standalone="no"?>
<svg
   version="1.1"
   viewBox="0 0 300.00378 299.99999"
   id="svg88"
   sodipodi:docname="connected.svg"
   width="300.00378"
   height="300"
   inkscape:version="1.1.2 (0a00cf5339, 2022-02-04)"
   xmlns:inkscape="http://www.inkscape.org/namespaces/inkscape"
   xmlns:sodipodi="http://sodipodi.sourceforge.net/DTD/sodipodi-0.dtd"
   xmlns="http://www.w3.org/2000/svg"
   xmlns:svg="http://www.w3.org/2000/svg"
   xmlns:rdf="http://www.w3.org/1999/02/22-rdf-syntax-ns#"
   xmlns:cc="http://creativecommons.org/ns#"
   xmlns:dc="http://purl.org/dc/elements/1.1/">
  <sodipodi:namedview
     id="namedview90"
     pagecolor="#ffffff"
     bordercolor="#666666"
     borderopacity="1.0"
     inkscape:pageshadow="2"
     inkscape:pageopacity="0.0"
     inkscape:pagecheckerboard="0"
     showgrid="false"
     inkscape:zoom="2"
     inkscape:cx="306.75"
     inkscape:cy="191.75"
     inkscape:window-width="1920"
     inkscape:window-height="1017"
     inkscape:window-x="0"
     inkscape:window-y="0"
     inkscape:window-maximized="1"
     inkscape:current-layer="svg88" />
  <defs
     id="defs4">
    <style
       id="style2">.a{fill:#88171a;}.b{fill:#231f20;}</style>
    <style
       id="style2-5">.a{fill:#88171a;}.b{fill:#231f20;}</style>
  </defs>
  <title
     id="title6">wireguard</title>
  <path
     class="a"
     d="m 183.78526,26.906 a 1.4806,1.4806 0 0 0 -0.18927,2.3686 2.2326,2.2326 0 0 0 3.0724,0.8219 c 0.9328,-0.47052 1.8478,-0.97137 2.975,-1.5665 -0.9079,-0.775 -1.6362,-1.4148 -2.3857,-2.0324 -1.318,-1.086 -2.411,-0.40386 -3.4724,0.40833 z"
     id="path82" />
  <metadata
     id="metadata2700">
    <rdf:RDF>
      <cc:Work
         rdf:about="">
        <dc:title>wireguard</dc:title>
      </cc:Work>
    </rdf:RDF>
  </metadata>
  <g
     id="g2734"
     transform="translate(4.4e-4,-1.6e-4)">
    <path
       class="a"
       d="m 299.74526,145.56 c 0,0 6.9396,-145.56 -153.04,-145.56 C 5.2252602,0 0.80526022,139.63 0.80526022,139.63 c 0,0 -20.81100022,160.37 149.15999978,160.37 163.02,0 149.78,-154.44 149.78,-154.44 z m -197.8,-50.863 c 30.017,-18.364 68.366,-7.1401 82.735,20.476 2.7233,5.2338 3.0694,13.291 1.3447,18.782 -5.9546,18.956 -20.014,29.587 -39.312,34.103 5.6892,-4.8707 10.218,-10.394 11.659,-18.025 a 26.402,26.402 0 0 0 -4.5425,-20.956 26.76,26.76 0 0 0 -30.811,-9.3892 c -11.881,4.5111 -18.389,15.354 -17.216,28.683 1.0898,12.381 10.484,20.405 28.061,23.453 -2.627,1.3904 -4.6503,2.4144 -6.6299,3.5172 a 63.918,63.918 0 0 0 -20.544,17.868 c -1.7839,2.4084 -3.0104,2.6024 -5.727,0.94116 -35.338,-21.61 -37.609,-75.844 0.98226,-99.453 z m -26.449,133.53 c -5.6769,1.441 -11.178,3.5742 -16.981,5.4775 2.8385,-19.151 25.265,-36.788 44.23,-34.776 a 48.881,48.881 0 0 0 -9.242,25.893 c -6.302,1.1606 -12.241,1.9414 -18.007,3.405 z m 120.79,-186.98 c 5.6099,0.20612 11.23,0.12091 16.844,0.25378 a 29.052,29.052 0 0 1 4.1674,0.58069 40.607,40.607 0 0 1 -4.2357,5.4332 c -2.007,1.8701 -4.2745,3.6986 -7.1661,0.856 -0.6955,-0.68372 -2.3386,-0.52679 -3.5487,-0.54272 -5.5823,-0.07336 -11.172,-0.25177 -16.746,-0.04132 a 104.04,104.04 0 0 0 -14.425,1.473 c -0.89368,0.16046 -2.2299,3.1315 -1.8191,4.227 0.9693,2.5853 2.3833,5.4363 4.4779,7.0898 7.7403,6.11 15.972,11.596 23.748,17.664 7.556,5.8966 14.589,12.358 18.875,21.253 5.5843,11.59 5.747,23.743 3.3388,35.95 -4.0203,20.378 -14.333,37.261 -31.032,49.524 -6.7288,4.941 -15.06,7.7451 -22.767,11.295 -6.778,3.1225 -13.755,5.8115 -20.549,8.9008 -12.249,5.5695 -19.133,18.865 -17.108,32.688 1.8585,12.685 12.987,23.271 25.735,25.456 15.292,2.6216 31.071,-7.3163 34.812,-22.86 4.2067,-17.478 -5.2898,-33.083 -23.065,-37.813 -0.78271,-0.20831 -1.5684,-0.40552 -3.2012,-0.8269 4.7549,-2.1245 8.8614,-3.6381 12.653,-5.7244 q 9.9213,-5.4594 19.481,-11.562 c 1.8742,-1.199 2.8868,-1.1996 4.4852,0.18225 12.225,10.57 19.518,23.718 21.563,39.839 3.3845,26.684 -9.2471,51.198 -33.072,63.762 -36.86,19.439 -81.965,-2.6864 -90.106,-43.552 -6.9738,-35.003 17.73,-66.754 47.462,-72.884 12.787,-2.6364 24.48,-7.9596 33.57,-17.807 5.8652,-6.3541 8.7084,-11.806 9.6772,-14.266 a 39.565,39.565 0 0 0 2.7211,-14.469 33.867,33.867 0 0 0 -2.9654,-12.398 c -3.104,-7.075 -14.995,-18.33 -17.939,-20.704 l -28,-21.921 c -0.98761,-0.81256 -2.0994,-0.75366 -4.5079,-0.59045 -2.8611,0.19391 -10.175,0.59888 -13.331,-0.22815 2.553,-1.9321 9.5132,-4.7451 12.502,-7.007 -9.0734,-6.1297 -19.43,-3.9158 -28.941,-5.7461 2.1992,-4.0959 13.081,-10.39 19.27,-11.091 a 91.533,91.533 0 0 0 -1.6876,-10.281 c -0.37781,-1.3917 -1.9312,-2.7408 -3.2864,-3.5355 -3.286,-1.9267 -6.7694,-3.5167 -10.549,-5.4327 a 21.936,21.936 0 0 1 11.332,-3.5055 42.316,42.316 0 0 1 11.348,1.1056 c 6.7422,1.5405 12.124,0.53491 17.488,-4.048 -4.222,-1.7002 -8.4435,-3.2535 -12.538,-5.0907 a 123.04,123.04 0 0 1 -11.779,-6.1583 c 10.622,1.4755 20.896,5.4585 31.757,4.0034 q 0.1387,-0.74048 0.27728,-1.4809 c -8.1194,-1.8899 -16.239,-3.7798 -25.229,-5.8724 15.04,-1.3769 29.042,-1.604 42.301,4.8541 3.731,1.8173 7.6348,3.3215 11.211,5.3972 1.7443,1.0124 2.9186,3.0078 4.3496,4.5594 1.1366,1.2325 2.0495,2.8837 3.446,3.6264 5.3,2.8184 11.134,2.9291 17.078,2.7879 0.0444,-0.67694 0.0861,-1.3114 0.1308,-1.9933 5.9821,1.8693 12.715,8.7679 12.704,13.806 -9.6911,0 -19.374,-0.037 -29.056,0.05389 -1.0348,0.0097 -2.0626,0.76563 -3.0936,1.1754 0.97986,0.57067 1.9428,1.5994 2.9423,1.6362 z"
       id="path80-5" />
    <path
       class="a"
       d="m 183.78526,26.906 a 1.4806,1.4806 0 0 0 -0.18927,2.3686 2.2326,2.2326 0 0 0 3.0724,0.8219 c 0.9328,-0.47052 1.8478,-0.97137 2.975,-1.5665 -0.9079,-0.775 -1.6362,-1.4148 -2.3857,-2.0324 -1.318,-1.086 -2.411,-0.40386 -3.4724,0.40833 z"
       id="path82-6" />
    <path
       style="fill:#ffffff;fill-opacity:1;stroke-width:0"
       d="m 100.95278,193.71435 c -8.565603,-4.89744 -17.992925,-15.79113 -22.004346,-25.427 -6.768602,-16.25891 -6.510885,-33.32312 0.731766,-48.45248 6.82092,-14.24839 18.901938,-24.984136 34.17778,-30.371936 15.29183,-5.393437 31.46759,-4.464658 46.03937,2.643483 9.57036,4.668441 16.52306,10.707893 22.00675,19.116123 3.66642,5.62179 4.69819,8.96309 4.7091,15.24996 0.01,5.50434 -0.78899,8.47839 -4.01084,14.9377 -4.35417,8.72945 -10.99054,15.52574 -20.03042,20.51314 -3.02593,1.66944 -11.94035,5.12991 -13.21501,5.12991 -0.53453,0 0.14863,-1.05939 2.00683,-3.11202 10.34001,-11.42199 10.26654,-27.76902 -0.17154,-38.16366 -4.99092,-4.97016 -12.1865,-8.00143 -18.9936,-8.00143 -6.78275,0 -14.01518,3.03678 -18.92448,7.94608 -4.22119,4.22118 -6.33978,8.47983 -7.3775,14.8297 -1.92072,11.75301 2.64875,21.37381 12.62483,26.581 3.51233,1.83332 10.92675,4.40164 12.70701,4.40164 1.73789,0 1.02964,0.82574 -2.14188,2.49718 -8.32357,4.38667 -14.54724,9.36123 -20.52116,16.40247 -2.10111,2.47651 -4.1971,4.50004 -4.65776,4.49674 -0.46066,-0.003 -1.79037,-0.55077 -2.9549,-1.2166 z"
       id="path3229" />
    <path
       style="fill:#ffffff;fill-opacity:1;stroke-width:0"
       d="m 148.59111,294.24685 c -26.04819,-4.71698 -46.45099,-25.26475 -51.002472,-51.3649 -0.9609,-5.51021 -0.948084,-14.76896 0.02819,-20.36734 2.151703,-12.33878 8.308082,-24.14813 17.366552,-33.31305 5.00023,-5.059 8.03904,-7.41803 13.97874,-10.85173 5.08769,-2.94116 9.27967,-4.49918 17.76672,-6.60334 13.5561,-3.36089 22.85193,-8.19008 30.48574,-15.83734 9.41037,-9.42696 13.78255,-18.70375 13.87358,-29.43665 0.12469,-14.70019 -6.44251,-23.32697 -34.4069,-45.197481 l -15.10227,-11.811237 -7.92724,0.08069 c -4.35998,0.04436 -8.04724,-0.03929 -8.19391,-0.185979 -0.14666,-0.146663 2.43034,-1.66505 5.72668,-3.374197 3.29633,-1.709141 5.99333,-3.273561 5.99333,-3.47648 0,-0.538773 -6.33545,-3.298691 -9.05248,-3.943542 -1.28179,-0.304216 -5.65107,-0.780843 -9.70951,-1.059167 -4.05844,-0.278319 -8.01069,-0.636331 -8.78278,-0.795572 -1.37288,-0.283154 -1.38385,-0.31172 -0.49792,-1.297294 2.79454,-3.108857 12.12047,-8.351476 16.21701,-9.116479 2.20208,-0.411223 2.22416,-0.550189 1.10596,-6.962401 -0.41869,-2.400954 -1.19026,-4.967856 -1.71461,-5.704228 -0.55678,-0.781928 -3.39666,-2.603885 -6.82708,-4.379986 l -5.87372,-3.041129 2.43459,-1.043591 c 5.17205,-2.216998 10.3512,-2.56261 18.19942,-1.214472 6.64324,1.141152 11.48481,0.820265 15.07556,-0.999168 5.28811,-2.679493 5.24967,-2.824486 -1.46095,-5.509909 -5.71278,-2.286112 -17.19717,-7.7804348 -16.89484,-8.0827688 0.0829,-0.082923 4.05229,0.6604978 8.82081,1.6520468 7.02747,1.461264 9.84922,1.815417 14.89409,1.869333 5.88448,0.06289 6.23187,0.01181 6.36774,-0.936214 0.13159,-0.918236 -0.8544,-1.232915 -11.7012,-3.7344238 l -11.8449,-2.7316936 6.72197,-0.4553847 c 8.19218,-0.5549858 17.12403,0.1449176 23.9191,1.8743119 2.82024,0.717769 8.07825,2.7445451 12.94601,4.9902242 8.42695,3.887668 9.04837,4.335642 13.42513,9.677923 2.69455,3.288964 6.66101,4.691593 14.06634,4.974161 5.1577,0.196805 5.85059,0.127521 5.85059,-0.585012 0,-1.152764 0.96832,-1.002808 3.2454,0.502592 4.39938,2.908477 7.81652,6.935041 8.92339,10.514829 l 0.3464,1.120328 h -14.74701 c -12.51999,0 -14.97876,0.119838 -16.28157,0.793545 l -1.53454,0.793546 1.43479,0.945905 c 1.26652,0.834973 2.45669,0.949655 10.14845,0.97788 4.79251,0.01759 9.55485,0.187113 10.58298,0.376724 l 1.86932,0.344747 -2.26451,2.881482 c -1.24547,1.584815 -3.05748,3.259625 -4.02667,3.721802 -1.70153,0.811402 -1.82841,0.8022 -3.68685,-0.267384 -1.83265,-1.054737 -2.45568,-1.107511 -13.02931,-1.10362 -9.91867,0.0036 -16.80575,0.419252 -21.70306,1.309681 -2.04453,0.371735 -3.32348,2.537494 -2.88349,4.88285 0.68857,3.670354 2.92925,6.023684 12.35702,12.978253 15.66347,11.554443 20.37322,15.299169 24.79391,19.713697 6.67982,6.670488 9.9785,12.157552 12.79972,21.291142 1.24075,4.01691 1.32898,4.92694 1.33431,13.76189 0.005,7.89616 -0.1744,10.2839 -1.0835,14.43977 -2.44721,11.18726 -7.33448,22.63212 -13.20682,30.92733 -3.65994,5.16999 -11.64017,13.38213 -16.54179,17.0225 -5.45052,4.04803 -10.69648,6.57402 -37.09528,17.86176 -4.79251,2.04921 -9.76503,4.39573 -11.05004,5.21449 -3.71093,2.36448 -8.41104,7.7065 -10.4614,11.89016 -7.09751,14.48206 -2.66231,30.7497 10.84703,39.7853 17.7963,11.90289 42.34926,2.32392 47.24139,-18.43054 0.96341,-4.08714 0.96421,-11.25723 0.001,-15.34036 -2.40674,-10.21012 -11.48824,-19.18887 -22.50702,-22.25237 l -3.08308,-0.85717 5.09594,-2.28827 c 6.10542,-2.74156 10.6213,-5.19747 20.35741,-11.07113 4.02265,-2.42665 7.68945,-4.4121 8.14868,-4.4121 1.21102,0 8.33966,7.06354 11.7972,11.68946 3.52261,4.71299 6.83205,11.1164 8.83496,17.09467 4.27522,12.76067 4.15731,28.54355 -0.3066,41.04147 -7.41991,20.77405 -26.30515,36.62613 -48.17846,40.44052 -5.39083,0.94008 -15.56313,0.93914 -20.75987,-0.002 z m 39.65808,-264.706577 1.83387,-1.082005 -1.68093,-1.394216 c -1.93384,-1.603999 -2.76329,-1.728336 -4.3087,-0.645886 -1.29522,0.907205 -1.4288,2.317055 -0.32419,3.421662 1.06581,1.065808 2.30643,0.982853 4.47995,-0.299555 z"
       id="path3268" />
    <path
       style="fill:#ffffff;fill-opacity:1;stroke-width:0"
       d="m 148.54759,294.23949 c -37.24771,-6.73987 -60.525583,-45.20555 -48.70602,-80.48459 4.84509,-14.46161 14.92902,-27.00701 27.95091,-34.77365 5.32414,-3.17547 10.15432,-5.03038 18.8085,-7.22293 14.35488,-3.63682 23.19694,-8.32008 31.26261,-16.55848 8.96718,-9.15921 13.12402,-18.2036 13.2032,-28.72734 0.11015,-14.63926 -6.40852,-23.18412 -34.52346,-45.254284 l -14.97373,-11.754334 -7.92255,0.08064 c -4.3574,0.04436 -8.04399,-0.04083 -8.19243,-0.18925 -0.14844,-0.148441 1.81238,-1.338562 4.35738,-2.644715 2.545,-1.306152 5.27415,-2.827367 6.06477,-3.38048 l 1.4375,-1.005661 -2.71911,-1.374945 c -4.06058,-2.053261 -7.93227,-2.878619 -16.14628,-3.442019 -4.0766,-0.279614 -8.04371,-0.638676 -8.8158,-0.797917 -1.37288,-0.283154 -1.38385,-0.31172 -0.49792,-1.297294 2.81512,-3.13175 12.12478,-8.352221 16.27772,-9.127867 l 1.92791,-0.360077 -0.31899,-2.796257 c -0.69053,-6.053169 -1.4028,-8.552388 -2.84981,-9.999399 -0.7761,-0.776102 -3.82493,-2.648681 -6.77518,-4.161288 l -5.36408,-2.750194 2.43959,-1.048161 c 5.06464,-2.176004 10.71686,-2.572551 17.97526,-1.261106 5.24238,0.947192 10.11959,0.926365 13.0118,-0.05556 2.84451,-0.965738 6.25382,-3.150758 6.01835,-3.857155 -0.0945,-0.283377 -2.97884,-1.66117 -6.40975,-3.061763 -6.1693,-2.518485 -15.98833,-7.2584483 -15.67834,-7.5684404 0.0882,-0.08817 4.06123,0.6435004 8.82901,1.6259364 8.97217,1.848777 19.42546,2.746622 20.8159,1.787902 1.74748,-1.2049 -0.0924,-1.941407 -11.47272,-4.5925889 l -11.62879,-2.7090615 6.72197,-0.4553847 c 8.22728,-0.5573637 17.12903,0.1462259 24.0121,1.8979019 2.99891,0.7631958 8.00424,2.703953 13.14931,5.0984922 l 8.30726,3.866234 3.27778,3.873829 c 4.55871,5.387705 8.31166,6.880665 17.29634,6.880665 3.36972,0 4.16438,-0.142522 4.16438,-0.746885 0,-1.026189 0.80818,-0.936649 2.92877,0.324486 4.04315,2.4045 8.12845,7.159305 9.24002,10.754306 l 0.3464,1.120328 h -14.74701 c -12.51999,0 -14.97876,0.119838 -16.28157,0.793545 l -1.53454,0.793546 1.43479,0.945905 c 1.26652,0.834973 2.45669,0.949655 10.14845,0.97788 4.79251,0.01759 9.55485,0.187113 10.58298,0.376724 l 1.86932,0.344747 -2.26451,2.881482 c -1.24547,1.584815 -3.05748,3.259625 -4.02667,3.721802 -1.70153,0.811402 -1.82841,0.8022 -3.68685,-0.267384 -1.83265,-1.054737 -2.45568,-1.107511 -13.02931,-1.10362 -9.91867,0.0036 -16.80575,0.419252 -21.70306,1.309681 -1.63574,0.29741 -3.09445,2.133556 -3.09445,3.895127 0,1.455405 2.19376,5.449566 3.96716,7.222965 0.97269,0.972688 6.69581,5.385816 12.71805,9.806951 22.34476,16.404066 27.99842,22.453879 32.33289,34.598485 2.37477,6.65379 2.95359,11.011 2.61895,19.715 -0.44816,11.65667 -2.88379,21.12171 -8.29732,32.24394 -3.78638,7.77921 -8.00801,13.67102 -14.46018,20.18098 -5.74153,5.79295 -10.65948,9.50266 -16.53982,12.47631 -3.76382,1.90334 -20.47671,9.3064 -28.6821,12.70488 -13.95525,5.77995 -19.60049,10.91365 -23.18988,21.08859 -1.32654,3.76037 -1.50344,4.91918 -1.52361,9.98045 -0.0189,4.7407 0.18287,6.35401 1.17238,9.37469 4.59509,14.02753 19.41478,23.4463 33.75307,21.45202 12.00425,-1.66964 21.74432,-9.62013 25.56548,-20.86824 1.52554,-4.49063 1.90909,-12.97207 0.78811,-17.42732 -2.76513,-10.98979 -11.26609,-19.48357 -22.71525,-22.69604 l -2.96183,-0.83105 5.67651,-2.61214 c 6.56836,-3.02253 9.73051,-4.74874 19.77376,-10.79444 4.01463,-2.41668 7.68142,-4.39395 8.14843,-4.39395 1.22313,0 8.33608,7.03982 11.81261,11.69118 3.5688,4.7748 7.2471,11.94228 9.03279,17.60117 4.07417,12.91114 3.88285,28.24634 -0.5057,40.53325 -7.41991,20.77405 -26.30515,36.62613 -48.17846,40.44052 -5.40679,0.94286 -15.56649,0.93833 -20.80339,-0.009 z m 39.53416,-264.672099 2.06775,-1.054888 -1.71414,-1.421334 c -1.96708,-1.631056 -2.79165,-1.758866 -4.34193,-0.673003 -1.29522,0.907205 -1.4288,2.317055 -0.32419,3.421662 1.03844,1.038441 1.84256,0.987642 4.31251,-0.272437 z"
       id="path3307" />
    <path
       style="fill:#ffffff;fill-opacity:1;stroke-width:0"
       d="m 59.014406,232.35533 c 0.0213,-1.66508 2.468783,-7.71663 4.51159,-11.15519 2.666275,-4.48801 8.879937,-10.98165 13.68996,-14.30681 6.926023,-4.78796 13.552169,-7.22953 21.226097,-7.8213 l 4.064127,-0.31341 -1.02527,1.45015 c -3.531921,4.99556 -7.281843,15.07743 -7.918183,21.28848 l -0.321049,3.13362 -5.29321,0.88298 c -8.665739,1.44555 -13.844105,2.70443 -21.600197,5.25106 -6.169091,2.02556 -7.342687,2.28006 -7.333865,1.59042 z"
       id="path3346" />
    <path
       style="fill:#ffffff;fill-opacity:1;stroke-width:0"
       d="m 100.95278,193.71435 c -9.114429,-5.21123 -18.220013,-16.04989 -22.539507,-26.82946 -4.103607,-10.24081 -5.327562,-20.25612 -3.752402,-30.70496 3.706781,-24.58894 22.351358,-43.868007 47.434919,-49.04916 20.80966,-4.298353 44.27143,3.885789 56.78685,19.80889 5.92607,7.53962 7.79938,12.31541 7.75946,19.7818 -0.0281,5.26067 -0.90039,8.45889 -3.99104,14.63354 -3.87833,7.74833 -10.5155,14.9233 -17.88972,19.33934 -3.77801,2.26245 -13.6937,6.35891 -15.39206,6.35891 -0.55072,0 0.0906,-1.01874 1.95919,-3.11202 12.77154,-14.30749 9.29685,-35.01705 -7.23809,-43.13989 -8.00111,-3.93057 -15.7686,-3.95527 -23.59296,-0.075 -7.06268,3.5025 -11.03966,7.96386 -13.38203,15.01185 -3.44076,10.35297 -1.50067,20.31264 5.24822,26.94225 3.46584,3.40458 9.16891,6.33753 15.51145,7.97714 2.37795,0.61472 4.32356,1.27625 4.32356,1.47006 0,0.19381 -1.82413,1.30139 -4.05361,2.4613 -7.28712,3.79117 -13.90555,9.15754 -19.66173,15.94215 -2.05592,2.42324 -4.11494,4.40319 -4.5756,4.39989 -0.46066,-0.003 -1.79037,-0.55077 -2.9549,-1.2166 z"
       id="path3385" />
  </g>
  <g
     id="g1043"
     transform="matrix(1.2898487,0,0,1.2898487,196.53125,204.92478)">
    <g
       id="g2682"
       transform="matrix(1.9660365,0,0,1.9660365,-41.940465,-48.358556)">
      <path
         d="M 32,2 C 15.431,2 2,15.432 2,32 2,48.568 15.432,62 32,62 48.568,62 62,48.568 62,32 62,15.432 48.568,2 32,2 Z M 25.025,50 25.005,49.98 24.988,50 11,35.6 l 7.029,-7.164 6.977,7.184 21,-21.619 6.994,7.198 z"
         fill="#43a047"
         id="path2" />
      <path
         style="fill:#ffffff;stroke-width:0"
         d="m 17.979067,42.823371 c -3.719301,-3.978202 -7.157146,-7.253899 -7.043374,-7.256777 0.09073,-0.0023 7.030531,-7.148737 7.097158,-7.125418 0.04733,0.01656 3.652062,3.645363 6.884559,7.080288 0.127649,0.135644 0.433869,-0.279327 10.182201,-10.313024 C 40.681134,19.463528 45.380414,14.570359 45.59355,14.387677 L 46.006,14.001 l 3.475104,3.536102 c 1.939242,1.973281 3.50995,3.616592 3.405124,3.660827 0,0 -4.381756,4.754686 -9.861609,10.397064 -5.479852,5.642378 -11.84173,12.010612 -14.013136,14.25113 -2.171405,2.240517 -3.971642,4.065526 -3.986333,4.081198 -0.04616,0.04924 -3.155182,-2.942203 -7.046083,-7.10395 z"
         id="path922"
         sodipodi:nodetypes="sssssscssssss" />
    </g>
  </g>
</svg>
